<?xml version="1.0" encoding="UTF-8" standalone="no"?>
<svg
   version="1.1"
   width="5.8417788in"
   height="1.4102672in"
   viewBox="0 0 420.6089 101.53936"
   id="svg3"
   sodipodi:docname="makoveclogo.svg"
   inkscape:version="1.4 (86a8ad7, 2024-10-11)"
   xmlns:inkscape="http://www.inkscape.org/namespaces/inkscape"
   xmlns:sodipodi="http://sodipodi.sourceforge.net/DTD/sodipodi-0.dtd"
   xmlns="http://www.w3.org/2000/svg"
   xmlns:svg="http://www.w3.org/2000/svg">
  <defs
     id="defs3" />
  <sodipodi:namedview
     id="namedview3"
     pagecolor="#ffffff"
     bordercolor="#000000"
     borderopacity="0"
     inkscape:showpageshadow="true"
     inkscape:pageopacity="0.0"
     inkscape:pagecheckerboard="0"
     inkscape:deskcolor="#d1d1d1"
     inkscape:document-units="in"
     showborder="false"
     borderlayer="true"
     inkscape:zoom="0.8988717"
     inkscape:cx="294.25779"
     inkscape:cy="268.67016"
     inkscape:window-width="1558"
     inkscape:window-height="1211"
     inkscape:window-x="3208"
     inkscape:window-y="1135"
     inkscape:window-maximized="0"
     inkscape:current-layer="svg3" />
  <path
     d="m 49.409605,82.49785 0.5678,-0.001 0.198,0.001 5e-4,-0.002 19.7463,-0.054 c 8.2194,-0.0222 14.2999,-1.0134 18.2491,-3.0097 3.9403,-1.9929 5.9177,-5.0851 5.9177,-9.2552 0,-3.5234 -1.6824,-6.2385 -5.0633,-8.1399 -3.3557,-1.8868 -8.158,-2.826 -14.4021,-2.8316 l -5.7487,-0.005 -5.7486,-0.005 -7.6586,-0.007 -5.068,19.5009 h -28.0744 l 14.1179,-54.6819 h -28.9199 c -4.6163,0 -8.7086,0.2377 -7.19870006,-6.0542 L 1.966705,11.12695 c 1.1972,-4.9929 2.7493,-6.156 5.5566,-6.156 h 45.9126 c 0.0156,0 0.0313,7e-4 0.047,7e-4 h 31.533 l 4.8772,9.224 -6.3926,9.6655 c -0.0654,0 -0.1301,-7e-4 -0.1962,-7e-4 l -19.2017,0.005 -5.0448,19.7491 18.4589,0.0478 c 7.9577,0.0208 13.8127,-0.9157 17.5262,-2.7429 3.7141,-1.8264 5.589895,-4.7052 5.589895,-8.6299 -0.1935,-2.7013 -1.421995,-4.9666 -3.784295,-6.7965 -2.7657,-1.6255 -4.3383,-1.5146 -5.5811,-1.6338 l 6.0785,-9.7397 -4.6633,-9.1318 c 15.314395,0.1983 27.128695,2.2895 35.438595,6.2947 8.7794,4.1923 13.1517,10.2582 13.1517,18.197 0,6.5338 -3.0579,11.797 -9.1405,15.789 -6.1153,3.969 -15.2899,6.7563 -27.5538,8.3173 9.766,2.3201 16.966,5.1967 21.6361,8.6528 4.6361,3.4569 6.9704,7.6491 6.9704,12.5776 0,8.3623 -4.2749,14.8747 -12.824,19.5348 -8.5157,4.6609 -20.484595,6.9802 -35.906695,6.9802 h -44.3413 -18.8616 -0.5799 v -7e-4 c -3.5676,-0.003 -7.0705,-0.192 -5.6247,-6.0604 l 1.6851,-6.8346 c 1.2094,-4.9097 2.2389,-6.1629 4.5195,-6.1629 h 0.1484 l 28.0113,0.2199 z"
     style="fill:#e30016;fill-rule:evenodd;stroke:#e30016;stroke-width:0.0113;stroke-linecap:butt;stroke-linejoin:miter;stroke-dasharray:none"
     id="path1" />
  <path
     d="m 36.438705,24.04115 0.004,-0.0174 z m 35.4633,-0.1611 -7.7994,0.002 -5.0448,19.749 7.7089,0.02 5.1305,-19.7427 z m 11.5838,0.0253 7.9456,-0.002 c 0.0589,0 0.1167,5e-4 0.1749,7e-4 -0.116,-0.008 -0.2287,-0.0172 -0.3389,-0.0278 l 6.0785,-9.7397 -4.6583,-9.1221 h -7.6578 l 4.8633,9.1977 -6.3926,9.6655 z m 0.9697,77.469 h 8.146 c 15.689095,0 27.865295,-2.3194 36.528495,-6.9802 8.6972,-4.6602 13.0461,-11.1725 13.0461,-19.5349 0,-4.9284 -2.3747,-9.1207 -7.091,-12.5775 -4.751,-3.4561 -12.0758,-6.3328 -22.0109,-8.6528 12.4763,-1.561 21.8098,-4.3483 28.031,-8.3173 6.1879,-3.992 9.2989,-9.2552 9.2989,-15.789 0,-7.9389 -4.5403,-13.4994 -13.4718,-17.6917 -8.4482,-4.0025 -20.1169,-6.2923 -35.6811,-6.4932 11.2245,0.7551 20.1824,2.7383 26.87,5.9615 8.7794,4.1923 13.1517,10.2582 13.1517,18.1971 0,6.5338 -3.0579,11.797 -9.1405,15.7889 -6.1153,3.9691 -15.2899,6.7563 -27.5538,8.3173 9.766,2.3201 16.966,5.1967 21.6361,8.6529 4.6361,3.4568 6.9704,7.6491 6.9704,12.5775 0,8.3624 -4.2749,14.8747 -12.824,19.5348 -8.5157,4.6609 -20.484595,6.9803 -35.906695,6.9803 z m -21.3381,-42.1619 -6.1552,23.2822 -6.7863,0.0186 -5e-4,0.002 -0.198,-0.002 -0.5678,0.002 0.002,-0.006 -28.0113,-0.22 0.8908,-3.5837 h 0.0346 7.0779 20.9965 l 5.068,-19.5009 z M 210.5676,16.14635 c 2.3717,10e-4 3.9752,0.6471 4.861,1.9163 0.9014,1.2904 1.0105,3.104 0.3015,5.4791 -1.3008,4.3589 -2.6061,8.731 -3.9048,13.0858 -1.301,4.3586 -2.603,8.7247 -3.904,13.0846 1.4038,0.002 2.8343,0.003 4.2637,0.004 -0.5736,1.9204 -1.1473,3.846 -1.7212,5.7664 -4.75,-0.005 -9.4988,-0.0101 -14.2488,-0.0152 0.575,-1.9195 1.1497,-3.845 1.7246,-5.7645 1.3529,0.002 2.7056,0.003 4.0585,0.004 1.2165,-4.0724 2.4353,-8.151 3.6499,-12.2173 1.2155,-4.0712 2.4323,-8.1457 3.6488,-12.2232 0.4149,-1.3936 0.4885,-2.3161 0.2292,-2.733 -0.2561,-0.4139 -1.1153,-0.6289 -2.4906,-0.6289 -3.6478,-0.001 -7.2697,-0.003 -10.8916,-0.005 -1.3862,4.6332 -2.7714,9.267 -4.1556,13.8941 -1.3862,4.6331 -2.7714,9.267 -4.159,13.9002 1.4048,0.002 2.8343,0.003 4.2638,0.004 -0.575,1.9195 -1.1496,3.8451 -1.7246,5.7635 -4.7746,-0.004 -9.4988,-0.009 -14.2487,-0.0143 0.576,-1.9184 1.1519,-3.843 1.7279,-5.7624 1.3527,10e-4 2.7315,0.003 4.1101,0.004 1.3875,-4.6332 2.7737,-9.2673 4.1612,-13.8992 1.3852,-4.627 2.7715,-9.2599 4.1577,-13.893 -4.7433,-0.002 -9.4373,-0.004 -14.1309,-0.006 -1.3883,4.6319 -2.7768,9.264 -4.1643,13.8901 -1.3883,4.6298 -2.7768,9.2629 -4.1674,13.895 1.4046,0.001 2.8081,0.003 4.2129,0.004 -0.5759,1.9185 -1.1529,3.843 -1.7289,5.7614 -4.7748,-0.005 -9.5494,-0.009 -14.3243,-0.0142 0.577,-1.9185 1.154,-3.842 1.731,-5.7604 1.4035,0.001 2.8343,0.002 4.2378,0.004 1.3905,-4.6321 2.7801,-9.2643 4.1696,-13.8941 1.3885,-4.626 2.7781,-9.2571 4.1676,-13.888 -1.4025,-0.001 -2.831,-0.002 -4.2345,-0.002 0.576,-1.9124 1.1517,-3.8369 1.7299,-5.7546 14.2302,0.005 28.5114,0.0102 42.7925,0.0146 z m 14.8829,26.1569 c -0.402,1.3519 -0.8072,2.7106 -1.2079,4.0551 -0.4063,1.3639 -0.4778,2.2835 -0.198,2.7229 0.2756,0.4332 1.1357,0.6472 2.5642,0.6482 3.4209,0.003 6.8677,0.007 10.2887,0.0102 1.0781,-3.626 2.1565,-7.2517 3.2349,-10.8787 -3.4199,-0.002 -6.8665,-0.005 -10.2854,-0.007 -1.4035,0 -2.3847,0.2149 -2.9228,0.6441 -0.565,0.4495 -1.0501,1.3824 -1.4737,2.8053 z m -2.4756,13.1919 c -2.3997,-0.002 -4.0508,-0.6322 -4.9193,-1.9136 -0.8688,-1.2811 -0.9606,-3.1121 -0.2499,-5.4994 0.738,-2.475 1.4751,-4.9531 2.2121,-7.4231 0.7108,-2.3863 1.8983,-4.2284 3.53,-5.5078 1.6315,-1.2781 3.6575,-1.9113 6.0563,-1.9103 4.0561,0.002 8.1392,0.005 12.1967,0.007 0.7876,-2.6442 1.5752,-5.3017 2.3631,-7.952 0.4106,-1.3822 0.5045,-2.2886 0.2247,-2.7289 -0.2756,-0.4323 -1.1087,-0.6472 -2.5372,-0.6472 -2.0896,-0.001 -4.1826,-0.003 -6.2742,-0.003 -1.4016,0 -2.4194,0.2069 -2.9468,0.6452 -0.523,0.4332 -0.9876,1.3468 -1.3992,2.7279 -0.3501,1.1784 -0.7024,2.3568 -1.0535,3.5351 -1.9644,-0.001 -3.9287,-0.002 -5.8672,-0.003 0.5241,-1.7584 1.0481,-3.5178 1.5722,-5.2762 0.7077,-2.3741 1.8607,-4.205 3.4965,-5.478 1.65,-1.2845 3.6554,-1.9124 6.0013,-1.9124 2.8297,0.001 5.6616,0.003 8.4926,0.003 2.8547,0.001 4.8385,0.7838 5.9082,2.3476 1.0634,1.5533 1.1682,3.79 0.3005,6.7095 -1.2135,4.0875 -2.429,8.1813 -3.6425,12.268 -1.2122,4.0805 -2.4301,8.1744 -3.6446,12.2611 1.4038,9e-4 2.8343,0.003 4.2638,0.004 -0.5717,1.9215 -1.1433,3.8483 -1.7147,5.7698 -7.4814,-0.008 -14.9121,-0.0152 -22.3689,-0.0234 z M 267.552,5.76905 c -1.6058,0 -3.2123,0 -4.7672,-0.001 0.5693,-1.9205 1.1387,-3.8358 1.7093,-5.7624 3.5421,0 7.1108,0 10.6787,0 -1.9016,6.4218 -2.5354,8.5054 -4.437,14.9233 -1.9029,6.4211 -3.8089,12.8452 -5.7128,19.2744 4.4011,-4.0867 8.802,-8.1794 13.2265,-12.2671 -1.4531,0 -2.8816,-0.001 -4.3101,-0.002 0.5684,-1.9154 1.1377,-3.8429 1.7083,-5.7644 5.101,0.002 10.2012,0.003 15.3271,0.005 -0.5696,1.9224 -1.1379,3.8511 -1.7062,5.7664 -1.6575,0 -3.2902,-0.001 -4.9227,-0.002 -4.7079,4.3569 -9.3919,8.7198 -14.0749,13.0703 3.1108,4.9237 6.2229,9.8494 9.3627,14.7698 1.3788,0.002 2.7574,0.003 4.1363,0.004 -0.5696,1.9228 -1.139,3.8514 -1.7084,5.7729 -5.2859,-0.005 -10.5705,-0.0112 -15.8305,-0.0163 0.5694,-1.9225 1.1399,-3.8501 1.7103,-5.7718 1.3789,9e-4 2.7575,0.002 4.1363,0.004 -2.644,-4.266 -5.261,-8.532 -7.877,-12.791 -0.9173,3.0887 -1.8334,6.1774 -2.7508,9.2722 -0.9174,3.095 -1.8347,6.1898 -2.7521,9.2784 -3.37,-0.003 -6.7413,-0.007 -10.0608,-0.0101 0.5717,-1.9215 1.1433,-3.8483 1.7149,-5.7698 1.3527,0.001 2.7316,0.003 4.1351,0.004 2.3924,-8.0622 4.7834,-16.1254 7.1735,-24.1815 2.3858,-8.0439 3.5047,-11.7614 5.8915,-19.8053 z m 43.6273,16.1824 c -2.4216,-0.001 -4.8473,-0.002 -7.2438,-0.003 -1.4284,0 -2.414,0.2132 -2.9454,0.6454 -0.5414,0.4403 -1.0105,1.3486 -1.4155,2.7195 -1.0374,3.5158 -2.079,7.0428 -3.1152,10.5525 -1.0361,3.5097 -2.0779,7.0388 -3.1161,10.5536 -0.4032,1.3661 -0.4722,2.2855 -0.1913,2.7259 0.2765,0.4332 1.1367,0.6484 2.5661,0.6494 2.3998,10e-4 4.8245,0.005 7.2502,0.007 1.4284,0.001 2.4203,-0.2061 2.9477,-0.6454 0.5218,-0.4343 0.9886,-1.3588 1.3906,-2.7246 1.0362,-3.5159 2.0756,-7.0452 3.1108,-10.5559 1.0351,-3.5107 2.0756,-7.0398 3.1108,-10.5555 0.4042,-1.371 0.4798,-2.2853 0.215,-2.7206 -0.2669,-0.4383 -1.1357,-0.6485 -2.5639,-0.6485 z m -16.9858,1.6279 c 0.7034,-2.3781 1.877,-4.2098 3.5095,-5.4851 1.648,-1.2865 3.6511,-1.9144 6.0229,-1.9144 3.6715,0.001 7.3443,0.003 11.0427,0.004 2.3708,0.001 3.9957,0.636 4.8927,1.9184 0.8978,1.2825 0.9713,3.1101 0.2701,5.4892 -1.2058,4.0908 -2.4117,8.1907 -3.6175,12.2825 -1.2049,4.0917 -2.4117,8.1907 -3.6199,12.2946 -0.7034,2.3906 -1.8584,4.2233 -3.5127,5.5037 -1.6554,1.2804 -3.6542,1.9083 -6.0281,1.9062 -3.703,-0.003 -7.3799,-0.009 -11.057,-0.0122 -2.3728,-0.002 -4.0109,-0.6278 -4.8979,-1.9154 -0.8805,-1.2773 -0.968,-3.1161 -0.2626,-5.5057 1.2112,-4.1009 2.4214,-8.1988 3.6306,-12.2895 1.2091,-4.0887 2.4183,-8.1866 3.6272,-12.2764 z m 34.5191,32.0247 c 0.0152,-5.6055 0.0313,-11.216 0.0702,-16.8268 0.0389,-5.5973 0.0822,-11.214 0.1231,-16.8176 -1.504,-0.001 -3.009,-0.001 -4.5143,-0.002 0.5663,-1.9174 1.1323,-3.847 1.6996,-5.7695 4.8191,0.001 9.6393,0.003 14.4594,0.005 -0.566,1.9235 -1.1313,3.8531 -1.6964,5.7705 -1.2501,0 -2.4743,-0.001 -3.6984,-0.001 -0.0898,4.1233 -0.1924,8.253 -0.2669,12.3713 -0.0745,4.1171 -0.1503,8.2425 -0.2389,12.3668 2.3089,-4.1223 4.6181,-8.2456 6.924,-12.3618 2.3069,-4.1162 4.6395,-8.2466 6.9724,-12.3702 -1.4285,-0.001 -2.831,-0.002 -4.2335,-0.002 0.564,-1.9185 1.1293,-3.8481 1.6953,-5.7726 4.7945,0.002 9.5886,0.004 14.4088,0.006 -0.5651,1.9245 -1.1293,3.8542 -1.6933,5.7736 -1.505,-10e-4 -3.0091,-0.002 -4.5144,-0.002 -3.3278,5.6036 -6.6861,11.2193 -9.9859,16.8176 -3.3054,5.6078 -6.6625,11.2173 -9.97,16.8207 -1.8378,-0.002 -3.6768,-0.004 -5.5408,-0.006 z m 38.8963,-30.2561 c -0.804,2.7463 -1.6089,5.4986 -2.4128,8.2449 4.6698,0.003 9.3388,0.006 14.0335,0.009 0.8029,-2.7472 1.6068,-5.4996 2.4097,-8.2469 0.4007,-1.373 0.4656,-2.2822 0.1836,-2.7236 -0.2767,-0.4343 -1.1638,-0.6484 -2.591,-0.6484 -2.4237,-10e-4 -4.8471,-0.004 -7.2448,-0.004 -1.4524,0 -2.4377,0.2132 -2.9694,0.6464 -0.5401,0.4414 -1.0069,1.3496 -1.4088,2.7226 z m -5.4114,-1.7358 c 0.6991,-2.3804 1.8833,-4.1978 3.5484,-5.4915 1.635,-1.2702 3.6219,-1.9163 5.9937,-1.9163 3.6964,10e-4 7.3961,0.002 11.0936,0.003 2.3964,0 4.0228,0.638 4.9229,1.9215 0.9001,1.2834 1.0026,3.1141 0.3068,5.4956 -0.7596,2.6022 -1.517,5.2017 -2.2766,7.8042 -0.7577,2.5974 -1.5183,5.1948 -2.2767,7.792 -6.6614,-0.005 -13.3216,-0.0102 -19.9569,-0.0152 -0.7111,2.4292 -1.4221,4.8511 -2.1298,7.2743 -0.3997,1.3658 -0.4669,2.2875 -0.1847,2.7289 0.2775,0.4343 1.1377,0.6493 2.5921,0.6503 2.3987,0.002 4.8254,0.005 7.2514,0.006 1.4282,10e-4 2.4397,-0.212 2.9724,-0.6452 0.5401,-0.4404 1.0092,-1.362 1.4089,-2.7279 0.2009,-0.6902 0.4042,-1.3801 0.6072,-2.0754 1.9655,0.001 3.931,0.003 5.9224,0.005 -0.3729,1.2712 -0.7413,2.5381 -1.1119,3.8084 -0.6981,2.3933 -1.8747,4.2283 -3.5268,5.5108 -1.6521,1.2821 -3.6511,1.9102 -6.0496,1.9082 -3.7031,-0.003 -7.4059,-0.008 -11.1079,-0.0112 -2.3748,-0.002 -3.9933,-0.6403 -4.8774,-1.9186 -0.8904,-1.2893 -0.9995,-3.1203 -0.2992,-5.5117 1.2026,-4.107 2.4031,-8.2089 3.6034,-12.3037 1.2005,-4.0949 2.4,-8.1968 3.5743,-12.2917 z m 29.9941,32.0583 c -2.3751,-0.003 -4.0142,-0.6302 -4.9306,-1.9195 -0.9097,-1.2793 -0.9733,-3.1337 -0.2755,-5.5271 1.1962,-4.1029 2.3914,-8.2008 3.5853,-12.2926 1.1939,-4.0897 2.3878,-8.1896 3.584,-12.2855 0.697,-2.3885 1.8423,-4.2355 3.4964,-5.5128 1.6694,-1.2886 3.6705,-1.9175 6.0423,-1.9175 5.609,10e-4 11.246,0.003 16.9077,0.006 -1.1669,4.0141 -2.3339,8.0235 -3.5008,12.0326 -1.8108,-10e-4 -3.597,-0.002 -5.4078,-0.003 0.6213,-2.1364 1.2435,-4.2731 1.867,-6.4088 -3.1886,-0.002 -6.4019,-0.004 -9.5646,-0.005 -1.3506,0 -2.2853,0.2468 -2.8936,0.7309 -0.6202,0.4925 -1.1303,1.4221 -1.5333,2.8075 -1.0265,3.5209 -2.0519,7.0439 -3.0772,10.5597 -1.0255,3.5158 -2.053,7.0377 -3.0795,10.5596 -0.4019,1.3791 -0.4365,2.3171 -0.1048,2.8145 0.3241,0.4874 1.113,0.739 2.4656,0.74 3.166,0.002 6.3827,0.006 9.5734,0.009 0.5619,-1.9317 1.1227,-3.8583 1.6866,-5.796 1.8121,10e-4 3.5993,0.003 5.4112,0.004 -1.1085,3.8114 -2.2161,7.6167 -3.3225,11.422 -5.6693,-0.007 -11.3119,-0.0132 -16.9293,-0.0183 z"
     style="fill:#1b1918;fill-rule:evenodd;stroke:#1b1918;stroke-width:0.0113;stroke-linecap:butt;stroke-linejoin:miter;stroke-dasharray:none"
     id="path2" />
  <path
     d="M 407.7536,65.88675 H 154.4617 l -2.1015,7.7932 c 7.9579,0.0128 15.9394,0.0251 23.8966,0.0376 -0.2599,0.9418 -0.519,1.8775 -0.7782,2.8155 -2.7376,-0.004 -5.4749,-0.008 -8.2125,-0.0114 -0.7614,2.7742 -1.5231,5.5423 -2.2812,8.3086 -0.7584,2.7636 -1.5168,5.5241 -2.2739,8.2803 -2.603,-0.001 -5.2058,-0.002 -7.8337,-0.003 0.753,-2.7575 1.5083,-5.5187 2.2624,-8.2843 0.755,-2.7671 1.5114,-5.537 2.2697,-8.313 -2.6026,-0.003 -5.2281,-0.007 -7.8095,-0.0109 l -6.7508,25.0344 h 252.492 l 7.211,-24.6867 c -2.6226,-0.003 -5.199,-0.007 -7.7992,-0.0105 -0.8794,2.7336 -1.7578,5.4635 -2.6353,8.1887 -0.8761,2.7216 -1.7536,5.4434 -2.6267,8.1589 -2.5529,-8e-4 -5.1045,-0.002 -7.6322,-0.003 0.8713,-2.717 1.7434,-5.4401 2.6155,-8.1627 0.8731,-2.7271 1.7484,-5.4581 2.6249,-8.1929 -2.6616,-0.004 -5.2977,-0.007 -7.934,-0.011 0.2946,-0.9235 0.5902,-1.8469 0.8858,-2.7762 7.7698,0.012 15.5163,0.0241 23.3109,0.0362 z m -220.8692,10.6618 c -0.262,0.9413 -0.5253,1.8843 -0.7863,2.8236 -0.2613,0.9385 -0.5233,1.878 -0.7856,2.8149 1.0382,0.001 2.0766,0.003 3.1149,0.004 1.7963,10e-4 3.123,-0.2035 3.947,-0.6177 0.826,-0.4152 1.3735,-1.188 1.6879,-2.315 0.2862,-1.0232 0.1262,-1.7279 -0.4974,-2.1172 -0.6265,-0.3912 -1.9166,-0.5858 -3.8414,-0.5884 -0.938,-0.001 -1.9011,-0.003 -2.8391,-0.004 z m -2.3509,8.438 c -0.3783,1.3559 -0.7563,2.7139 -1.1333,4.0681 -0.3771,1.3554 -0.7551,2.7101 -1.1324,4.0617 -2.6279,-5e-4 -5.2297,-0.002 -7.8325,-0.002 0.892,-3.2197 1.7862,-6.4477 2.6801,-9.6751 0.8942,-3.2301 1.7923,-6.4719 2.6916,-9.716 3.8292,0.006 7.6844,0.0122 11.5635,0.0181 4.3105,0.007 7.3155,0.4568 8.9836,1.347 1.6608,0.8866 2.2123,2.3199 1.6577,4.2887 -0.3416,1.2132 -1.011,2.1942 -1.996,2.9449 -0.9807,0.7477 -2.4064,1.355 -4.3096,1.8205 0.5402,1.5015 1.0685,3.0014 1.5949,4.4958 0.5276,1.4971 1.0791,2.9914 1.619,4.4838 -2.704,-6e-4 -5.4073,-0.002 -8.0854,-0.002 -0.4301,-1.3516 -0.872,-2.7063 -1.2898,-4.0615 -0.4169,-1.3542 -0.8606,-2.7122 -1.2659,-4.0684 -1.2649,-0.001 -2.5048,-0.002 -3.7455,-0.003 z m 16.3325,8.1359 c 2.298,-3.2133 4.6125,-6.4338 6.9052,-9.6547 2.2916,-3.2212 4.6166,-6.4554 6.9311,-9.6904 3.3978,0.005 6.7966,0.0107 10.2193,0.016 0.4678,3.2365 0.9117,6.4705 1.3536,9.6917 0.442,3.2184 0.9088,6.4368 1.3756,9.6461 -2.6791,-0.001 -5.332,-0.002 -8.0101,-0.003 -0.1338,-1.3892 -0.2404,-2.7806 -0.349,-4.1741 -2.63,-0.002 -5.259,-0.003 -7.889,-0.005 -0.9776,1.3936 -1.9301,2.7857 -2.8805,4.1757 -2.5519,-0.001 -5.1046,-0.002 -7.6562,-0.003 z m 12.302,-6.9115 c 1.9739,0.001 3.9722,0.003 5.9713,0.005 -0.0972,-1.3435 -0.1682,-2.6908 -0.2142,-4.0364 -0.0458,-1.3455 -0.117,-2.6953 -0.1628,-4.0467 -0.1776,-2e-4 -0.3292,-7e-4 -0.4816,-7e-4 -0.8919,1.3505 -1.7579,2.6994 -2.5967,4.0442 -0.8387,1.3447 -1.6772,2.6917 -2.516,4.035 z m 18.9554,6.9217 c 0.9252,-3.2077 1.8548,-6.4238 2.7834,-9.6395 0.9296,-3.2176 1.8625,-6.4478 2.8213,-9.6796 2.3081,0.004 4.6415,0.007 7.0001,0.0106 1.0611,1.9342 2.186,3.8654 3.2598,5.7935 1.0716,1.924 2.1818,3.8491 3.2536,5.7718 0.1231,0.2229 0.2422,0.5167 0.4009,0.879 0.1588,0.3635 0.3363,0.7561 0.492,1.1753 -0.0898,-0.5602 -0.1661,-1.0804 -0.1786,-1.5518 -0.0124,-0.4773 -0.0114,-0.8246 0.0532,-1.0484 0.535,-1.8294 1.0698,-3.6598 1.6055,-5.4913 0.5358,-1.8336 1.0749,-3.6717 1.6116,-5.5115 2.4097,0.003 4.8695,0.008 7.3041,0.0114 -0.9484,3.2271 -1.8968,6.4516 -2.8408,9.6644 -0.9434,3.2103 -1.8874,6.4213 -2.8287,9.624 -2.4263,-5e-4 -4.8766,-0.001 -7.2779,-0.002 -1.0749,-1.7698 -2.1265,-3.5443 -3.1752,-5.3172 -1.0519,-1.777 -2.1151,-3.5578 -3.1805,-5.3366 -0.0252,-0.0432 -0.0679,-0.1124 -0.119,-0.202 -0.4188,-0.7299 -0.7447,-1.3579 -0.9182,-1.897 0.0814,0.6797 0.1221,1.2407 0.142,1.6907 0.0211,0.4513 0.002,0.7765 -0.0563,0.9802 -0.4889,1.6834 -0.9766,3.3657 -1.4643,5.0456 -0.4879,1.6798 -0.9756,3.3573 -1.4612,5.033 -2.4265,-8e-4 -4.8268,-0.001 -7.2268,-0.002 z m 31.7354,-4.869 c 2.4954,-0.1394 5.0158,-0.2806 7.5371,-0.42 -0.1378,0.9744 0.143,1.6951 0.825,2.1601 0.6844,0.4674 1.8417,0.6996 3.4584,0.7004 1.4165,3e-4 2.6071,-0.1694 3.5911,-0.509 0.9881,-0.3412 1.5498,-0.7905 1.7169,-1.3494 0.2977,-0.9993 -1.3829,-2.3 -5.0897,-3.891 -0.2194,-0.0942 -0.444,-0.1875 -0.6505,-0.2781 -3.5785,-1.5691 -5.8378,-2.7722 -6.7549,-3.6148 -0.9148,-0.8405 -1.2356,-1.7337 -0.9568,-2.6793 0.4012,-1.3633 1.9011,-2.5137 4.5164,-3.44 2.6259,-0.9306 5.6141,-1.389 8.9856,-1.3837 3.2714,0.005 5.8106,0.437 7.6532,1.3041 1.8256,0.8583 2.6895,2.025 2.5015,3.4951 -2.5496,0.1334 -5.1244,0.269 -7.6727,0.4005 0.1053,-0.8607 -0.1005,-1.4776 -0.6635,-1.8561 -0.5556,-0.3735 -1.506,-0.5633 -2.8742,-0.5653 -1.242,-0.002 -2.3135,0.16 -3.1617,0.4846 -0.8387,0.3211 -1.3422,0.7615 -1.502,1.3026 -0.3332,1.1226 1.6681,2.5862 5.9881,4.3985 0.1366,0.0576 0.2704,0.1168 0.4042,0.1733 3.147,1.3346 5.1712,2.4237 6.0349,3.2703 0.8566,0.8395 1.1323,1.7882 0.82,2.83 -0.4211,1.4025 -1.8979,2.5475 -4.4464,3.4481 -2.5382,0.897 -5.5328,1.3399 -9.0191,1.3389 -3.8396,-0.001 -6.7411,-0.4696 -8.7287,-1.4102 -1.9805,-0.9371 -2.8014,-2.2422 -2.5122,-3.9096 z m 39.6341,-5.6601 c 1.0132,0.001 2.0253,0.002 3.0635,0.003 1.8227,0.002 3.1021,-0.2063 3.9136,-0.6266 0.8116,-0.421 1.4142,-1.2315 1.7747,-2.416 0.3333,-1.0959 0.1941,-1.8398 -0.4073,-2.2423 -0.5986,-0.4004 -1.8207,-0.6049 -3.7455,-0.6077 -0.938,-10e-4 -1.876,-0.002 -2.8139,-0.004 -0.2977,0.986 -0.5953,1.9685 -0.893,2.9505 -0.2966,0.98 -0.5955,1.9625 -0.8921,2.9427 z m -10.9283,10.5487 c 0.9629,-3.1953 1.954,-6.3987 2.9192,-9.6018 0.9662,-3.207 1.9345,-6.4229 2.9048,-9.6426 3.7539,0.006 7.559,0.0123 11.3607,0.0178 4.2355,0.006 7.1601,0.4572 8.802,1.3372 1.6483,0.8835 2.1622,2.3023 1.5635,4.2561 -0.5556,1.8162 -1.8947,3.2461 -4.0724,4.2859 -2.1787,1.0397 -4.8547,1.5571 -8.0436,1.5549 -1.7953,-0.001 -3.568,-0.003 -5.3394,-0.004 -0.3938,1.3016 -0.7906,2.6054 -1.1834,3.9048 -0.3926,1.2993 -0.7864,2.5992 -1.1792,3.8944 -2.5778,-5e-4 -5.1546,-0.001 -7.7322,-0.002 z m 44.8971,-4.2042 c 0.5525,-1.7816 1.1081,-3.5652 1.6617,-5.3508 0.5536,-1.7849 1.1082,-3.5731 1.664,-5.3625 0.2046,-0.6612 0.0313,-1.1609 -0.5515,-1.4944 -0.5788,-0.3312 -1.4926,-0.5014 -2.8096,-0.5029 -1.3183,-0.002 -2.3532,0.1666 -3.121,0.495 -0.7792,0.3333 -1.2712,0.8307 -1.4748,1.4924 -0.5525,1.7899 -1.104,3.5791 -1.6556,5.3652 -0.5505,1.7864 -1.1028,3.5713 -1.6533,5.3534 -0.2038,0.6615 -0.0242,1.1586 0.5482,1.4982 0.5589,0.332 1.4895,0.5021 2.8035,0.5024 1.314,2e-4 2.3313,-0.1666 3.1126,-0.4996 0.7907,-0.3374 1.271,-0.8355 1.4758,-1.4964 z m -12.5443,-10.5469 c 0.4669,-1.5168 1.8958,-2.7026 4.3169,-3.5616 2.4212,-0.8594 5.5211,-1.2894 9.3002,-1.2837 3.5751,0.006 6.2417,0.4576 8.0571,1.3437 1.8164,0.8871 2.4931,2.0901 2.0179,3.614 -0.5119,1.6424 -1.0258,3.2851 -1.5353,4.9211 -0.5099,1.6366 -1.0227,3.2752 -1.5323,4.9092 -0.5212,1.6745 -1.9449,2.9638 -4.292,3.8722 -2.3364,0.9044 -5.4019,1.3605 -9.1912,1.36 -3.8397,-10e-4 -6.6338,-0.4533 -8.3759,-1.3564 -1.7441,-0.9052 -2.3219,-2.2319 -1.7882,-3.973 0.5025,-1.6366 1.008,-3.2779 1.5104,-4.9168 0.5025,-1.6386 1.008,-3.284 1.5124,-4.9287 z m 38.835,-1.6099 c -0.2936,0.9324 -0.5879,1.865 -0.8794,2.7913 -0.2924,0.9283 -0.5859,1.8589 -0.8775,2.7854 0.9871,0.001 2.0014,0.002 3.0134,0.003 1.7716,0.002 3.0625,-0.199 3.8908,-0.6103 0.824,-0.4089 1.386,-1.1772 1.738,-2.2909 0.3196,-1.0102 0.1954,-1.7081 -0.4022,-2.0914 -0.6047,-0.3883 -1.8446,-0.5808 -3.7203,-0.5834 -0.938,-0.002 -1.876,-0.003 -2.7628,-0.004 z m -2.629,8.3444 c -0.422,1.3406 -0.8448,2.6813 -1.2669,4.0217 -0.422,1.3407 -0.8438,2.6797 -1.2659,4.016 -2.5768,-8e-4 -5.1295,-0.002 -7.6811,-0.002 0.9975,-3.1833 1.9991,-6.3745 2.9986,-9.5657 1.0006,-3.1947 2.0055,-6.3984 3.0114,-9.6056 3.7778,0.006 7.5317,0.0119 11.2847,0.0175 4.208,0.006 7.1389,0.4536 8.7358,1.3318 1.5971,0.8787 2.111,2.2929 1.4915,4.2383 -0.3811,1.1987 -1.0933,2.1698 -2.0919,2.9134 -0.9904,0.738 -2.4002,1.3394 -4.2678,1.7999 0.4648,1.4844 0.9431,2.9665 1.3954,4.4449 0.4523,1.4793 0.9316,2.9579 1.4216,4.4331 -2.6532,-7e-4 -5.3061,-0.002 -7.934,-0.002 -0.3854,-1.3364 -0.7843,-2.6745 -1.1311,-4.0152 -0.3467,-1.3402 -0.7207,-2.6817 -1.0812,-4.0229 -1.2147,-0.001 -2.4292,-0.002 -3.6191,-0.003 z"
     style="fill:#e30016;fill-rule:evenodd;stroke:#e30016;stroke-width:0.0113;stroke-linecap:butt;stroke-linejoin:miter;stroke-dasharray:none"
     id="path3" />
</svg>
